{
	"asset":{
		"generator":"Khronos glTF Blender I/O v4.2.60",
		"version":"2.0"
	},
	"scene":0,
	"scenes":[
		{
			"name":"Scene",
			"nodes":[
				0
			]
		}
	],
	"nodes":[
		{
			"mesh":0,
			"name":"earth",
			"rotation":[
				0.9811168313026428,
				-0.04372689500451088,
				0.18822935223579407,
				0.008212669752538204
			],
			"scale":[
				-0.014578697271645069,
				-0.014578698202967644,
				-0.014578699134290218
			]
		}
	],
	"materials":[
		{
			"name":"Default OBJ",
			"normalTexture":{
				"index":0
			},
			"pbrMetallicRoughness":{
				"baseColorTexture":{
					"index":1
				},
				"metallicFactor":0.25
			}
		}
	],
	"meshes":[
		{
			"name":"Cube.002",
			"primitives":[
				{
					"attributes":{
						"POSITION":0,
						"NORMAL":1,
						"TEXCOORD_0":2
					},
					"indices":3,
					"material":0
				}
			]
		}
	],
	"textures":[
		{
			"sampler":0,
			"source":0
		},
		{
			"sampler":1,
			"source":1
		}
	],
	"images":[
		{
			"mimeType":"image/png",
			"name":"earth_norm",
			"uri":"earth_norm.png"
		},
		{
			"mimeType":"image/png",
			"name":"earth_diff",
			"uri":"earth_diff.png"
		}
	],
	"accessors":[
		{
			"bufferView":0,
			"componentType":5126,
			"count":1778,
			"max":[
				500,
				498.32342529296875,
				500
			],
			"min":[
				-499.9999694824219,
				-498.3235168457031,
				-500
			],
			"type":"VEC3"
		},
		{
			"bufferView":1,
			"componentType":5126,
			"count":1778,
			"type":"VEC3"
		},
		{
			"bufferView":2,
			"componentType":5126,
			"count":1778,
			"type":"VEC2"
		},
		{
			"bufferView":3,
			"componentType":5123,
			"count":9216,
			"type":"SCALAR"
		}
	],
	"bufferViews":[
		{
			"buffer":0,
			"byteLength":21336,
			"byteOffset":0,
			"target":34962
		},
		{
			"buffer":0,
			"byteLength":21336,
			"byteOffset":21336,
			"target":34962
		},
		{
			"buffer":0,
			"byteLength":14224,
			"byteOffset":42672,
			"target":34962
		},
		{
			"buffer":0,
			"byteLength":18432,
			"byteOffset":56896,
			"target":34963
		}
	],
	"samplers":[
		{
			"magFilter":9729,
			"minFilter":9987
		},
		{
			"magFilter":9729,
			"minFilter":9987,
			"wrapS":33071,
			"wrapT":33071
		}
	],
	"buffers":[
		{
			"byteLength":75328,
			"uri":"earth.bin"
		}
	]
}
